<svg width="23" height="23" viewBox="0 0 23 23" fill="none" xmlns="http://www.w3.org/2000/svg">
<path d="M20.909 7.31703C21.4635 7.31703 21.9954 7.53732 22.3875 7.92944C22.7796 8.32156 22.9999 8.85338 22.9999 9.40793V13.5897C22.9999 14.1443 22.7796 14.6761 22.3875 15.0682C21.9954 15.4603 21.4635 15.6806 20.909 15.6806H19.7987C19.5439 17.7018 18.5602 19.5605 17.0322 20.9079C15.5043 22.2553 13.5371 22.9987 11.5 22.9988V20.9079C13.1636 20.9079 14.7591 20.247 15.9354 19.0706C17.1118 17.8943 17.7727 16.2988 17.7727 14.6352V8.36248C17.7727 6.69885 17.1118 5.10337 15.9354 3.92701C14.7591 2.75065 13.1636 2.08977 11.5 2.08977C9.83633 2.08977 8.24084 2.75065 7.06448 3.92701C5.88812 5.10337 5.22725 6.69885 5.22725 8.36248V15.6806H2.0909C1.53636 15.6806 1.00453 15.4603 0.612411 15.0682C0.220291 14.6761 0 14.1443 0 13.5897V9.40793C0 8.85338 0.220291 8.32156 0.612411 7.92944C1.00453 7.53732 1.53636 7.31703 2.0909 7.31703H3.20117C3.45629 5.29606 4.44011 3.43765 5.96803 2.09048C7.49595 0.743318 9.46295 0 11.5 0C13.537 0 15.504 0.743318 17.0319 2.09048C18.5598 3.43765 19.5436 5.29606 19.7987 7.31703H20.909ZM7.06724 15.4559L8.17542 13.6828C9.17181 14.3069 10.3242 14.6371 11.5 14.6352C12.6757 14.6371 13.8281 14.3069 14.8245 13.6828L15.9327 15.4559C14.6042 16.2882 13.0676 16.7285 11.5 16.7261C9.93226 16.7285 8.39574 16.2882 7.06724 15.4559Z" fill="white"/>
</svg>
