<svg width="1115" height="140" viewBox="0 0 1115 140" fill="none" xmlns="http://www.w3.org/2000/svg">
<g filter="url(#filter0_d_2_659)">
<path d="M199.311 131H21.7085C12.4806 131 5 123.519 5 114.292V17.7085C5 8.48063 12.4806 1 21.7085 1H199.3C200.471 1 201.605 1.41108 202.504 2.16155L242.982 35.9496C243.881 36.7 245.015 37.1111 246.186 37.1111H334.184H341.684H383.684H393.184H1109.39C1110.17 37.1111 1110.65 37.9719 1110.24 38.6381L1075.48 94.6937C1075.29 94.9878 1074.97 95.1667 1074.63 95.1667H256.684H246.175C245.01 95.1667 243.882 95.5732 242.985 96.3161L202.501 129.851C201.604 130.593 200.476 131 199.311 131Z" fill="black" fill-opacity="0.58" shape-rendering="crispEdges"/>
<path d="M199.311 131H21.7085C12.4806 131 5 123.519 5 114.292V17.7085C5 8.48063 12.4806 1 21.7085 1H199.3C200.471 1 201.605 1.41108 202.504 2.16155L242.982 35.9496C243.881 36.7 245.015 37.1111 246.186 37.1111H334.184H341.684H383.684H393.184H1109.39C1110.17 37.1111 1110.65 37.9719 1110.24 38.6381L1075.48 94.6937C1075.29 94.9878 1074.97 95.1667 1074.63 95.1667H256.684H246.175C245.01 95.1667 243.882 95.5732 242.985 96.3161L202.501 129.851C201.604 130.593 200.476 131 199.311 131Z" stroke="#49E9FF" shape-rendering="crispEdges"/>
</g>
<defs>
<filter id="filter0_d_2_659" x="0.5" y="0.5" width="1114.39" height="139" filterUnits="userSpaceOnUse" color-interpolation-filters="sRGB">
<feFlood flood-opacity="0" result="BackgroundImageFix"/>
<feColorMatrix in="SourceAlpha" type="matrix" values="0 0 0 0 0 0 0 0 0 0 0 0 0 0 0 0 0 0 127 0" result="hardAlpha"/>
<feOffset dy="4"/>
<feGaussianBlur stdDeviation="2"/>
<feComposite in2="hardAlpha" operator="out"/>
<feColorMatrix type="matrix" values="0 0 0 0 0 0 0 0 0 0 0 0 0 0 0 0 0 0 0.25 0"/>
<feBlend mode="normal" in2="BackgroundImageFix" result="effect1_dropShadow_2_659"/>
<feBlend mode="normal" in="SourceGraphic" in2="effect1_dropShadow_2_659" result="shape"/>
</filter>
</defs>
</svg>
