<svg width="68" height="68" viewBox="0 0 68 68" fill="none" xmlns="http://www.w3.org/2000/svg">
<g filter="url(#filter0_d_2_994)">
<circle cx="34" cy="34" r="23" fill="#49E9FF" fill-opacity="0.15" shape-rendering="crispEdges"/>
<circle cx="34" cy="34" r="22.5" stroke="#49E9FF" stroke-opacity="0.76" shape-rendering="crispEdges"/>
</g>
<path d="M43.909 30.317C44.4635 30.317 44.9954 30.5373 45.3875 30.9294C45.7796 31.3216 45.9999 31.8534 45.9999 32.4079V36.5897C45.9999 37.1443 45.7796 37.6761 45.3875 38.0682C44.9954 38.4603 44.4635 38.6806 43.909 38.6806H42.7987C42.5439 40.7018 41.5602 42.5605 40.0322 43.9079C38.5043 45.2553 36.5371 45.9987 34.5 45.9988V43.9079C36.1636 43.9079 37.7591 43.247 38.9354 42.0706C40.1118 40.8943 40.7727 39.2988 40.7727 37.6352V31.3625C40.7727 29.6989 40.1118 28.1034 38.9354 26.927C37.7591 25.7506 36.1636 25.0898 34.5 25.0898C32.8363 25.0898 31.2408 25.7506 30.0645 26.927C28.8881 28.1034 28.2273 29.6989 28.2273 31.3625V38.6806H25.0909C24.5364 38.6806 24.0045 38.4603 23.6124 38.0682C23.2203 37.6761 23 37.1443 23 36.5897V32.4079C23 31.8534 23.2203 31.3216 23.6124 30.9294C24.0045 30.5373 24.5364 30.317 25.0909 30.317H26.2012C26.4563 28.2961 27.4401 26.4376 28.968 25.0905C30.4959 23.7433 32.4629 23 34.5 23C36.537 23 38.504 23.7433 40.0319 25.0905C41.5598 26.4376 42.5436 28.2961 42.7987 30.317H43.909ZM30.0672 38.4559L31.1754 36.6828C32.1718 37.3069 33.3242 37.6371 34.5 37.6352C35.6757 37.6371 36.8281 37.3069 37.8245 36.6828L38.9327 38.4559C37.6042 39.2882 36.0676 39.7285 34.5 39.7261C32.9323 39.7285 31.3957 39.2882 30.0672 38.4559Z" fill="white"/>
<defs>
<filter id="filter0_d_2_994" x="0.32" y="0.32" width="67.36" height="67.36" filterUnits="userSpaceOnUse" color-interpolation-filters="sRGB">
<feFlood flood-opacity="0" result="BackgroundImageFix"/>
<feColorMatrix in="SourceAlpha" type="matrix" values="0 0 0 0 0 0 0 0 0 0 0 0 0 0 0 0 0 0 127 0" result="hardAlpha"/>
<feMorphology radius="1" operator="dilate" in="SourceAlpha" result="effect1_dropShadow_2_994"/>
<feOffset/>
<feGaussianBlur stdDeviation="4.84"/>
<feComposite in2="hardAlpha" operator="out"/>
<feColorMatrix type="matrix" values="0 0 0 0 0 0 0 0 0 0.819608 0 0 0 0 1 0 0 0 0.43 0"/>
<feBlend mode="normal" in2="BackgroundImageFix" result="effect1_dropShadow_2_994"/>
<feBlend mode="normal" in="SourceGraphic" in2="effect1_dropShadow_2_994" result="shape"/>
</filter>
</defs>
</svg>
